<svg width="37" height="23" viewBox="0 0 37 23" fill="none" xmlns="http://www.w3.org/2000/svg">
<path d="M8.79575 22.32C6.40642 22.32 4.49708 21.392 3.06775 19.536C1.63842 17.68 0.92375 14.9813 0.92375 11.44C0.92375 7.89867 1.63842 5.2 3.06775 3.344C4.49708 1.488 6.40642 0.559999 8.79575 0.559999C11.2064 0.559999 13.1158 1.488 14.5238 3.344C15.9531 5.2 16.6678 7.89867 16.6678 11.44C16.6678 14.9813 15.9531 17.68 14.5238 19.536C13.1158 21.392 11.2064 22.32 8.79575 22.32ZM8.79575 20.016C9.92642 20.016 10.8758 19.696 11.6438 19.056C12.4331 18.3947 13.0198 17.424 13.4038 16.144C13.8091 14.864 14.0118 13.296 14.0118 11.44C14.0118 9.584 13.8091 8.016 13.4038 6.736C13.0198 5.456 12.4331 4.496 11.6438 3.856C10.8758 3.19467 9.92642 2.864 8.79575 2.864C7.66508 2.864 6.70508 3.19467 5.91575 3.856C5.14775 4.496 4.56108 5.456 4.15575 6.736C3.77175 8.016 3.57975 9.584 3.57975 11.44C3.57975 13.296 3.77175 14.864 4.15575 16.144C4.56108 17.424 5.14775 18.3947 5.91575 19.056C6.70508 19.696 7.66508 20.016 8.79575 20.016ZM28.702 22.32C26.3127 22.32 24.4033 21.392 22.974 19.536C21.5447 17.68 20.83 14.9813 20.83 11.44C20.83 7.89867 21.5447 5.2 22.974 3.344C24.4033 1.488 26.3127 0.559999 28.702 0.559999C31.1127 0.559999 33.022 1.488 34.43 3.344C35.8593 5.2 36.574 7.89867 36.574 11.44C36.574 14.9813 35.8593 17.68 34.43 19.536C33.022 21.392 31.1127 22.32 28.702 22.32ZM28.702 20.016C29.8327 20.016 30.782 19.696 31.55 19.056C32.3393 18.3947 32.926 17.424 33.31 16.144C33.7153 14.864 33.918 13.296 33.918 11.44C33.918 9.584 33.7153 8.016 33.31 6.736C32.926 5.456 32.3393 4.496 31.55 3.856C30.782 3.19467 29.8327 2.864 28.702 2.864C27.5713 2.864 26.6113 3.19467 25.822 3.856C25.054 4.496 24.4673 5.456 24.062 6.736C23.678 8.016 23.486 9.584 23.486 11.44C23.486 13.296 23.678 14.864 24.062 16.144C24.4673 17.424 25.054 18.3947 25.822 19.056C26.6113 19.696 27.5713 20.016 28.702 20.016Z" fill="white"/>
</svg>
